<?xml version="1.0" encoding="UTF-8"?>
<svg id="Layer_1" data-name="Layer 1" xmlns="http://www.w3.org/2000/svg" viewBox="0 0 331 407">
  <defs>
    <style>
      .cls-1 {
        fill: #fff;
      }

      .cls-2 {
        fill: #00aeef;
      }

      .cls-3 {
        fill: #00adee;
      }
    </style>
  </defs>
  <rect class="cls-1" x="145.19" y="113.75" width="23.27" height="66.35"/>
  <rect class="cls-1" x="149.27" y="191.13" width="15.11" height="15.11"/>
  <g>
    <g>
      <path class="cls-2" d="m203.92,155.85c-2.69-3.22-6.04-6.41-9.82-9.46-.04-.03-.08-.07-.12-.1-5.36-4.31-11.56-8.31-17.96-11.64-15.34-7.99-31.81-12.09-40.4-7.13-9.53,5.5-14.53,25.55-14.56,45.09-.02,19.04,4.69,37.61,14.56,41.81,2.29.98,5.05,1.44,8.14,1.47,2.59-.24,5.19-.57,7.77-.98,2.4-.48,4.84-1.06,7.27-1.72m0,0c2.78-.76,5.56-1.63,8.3-2.6,2.28-.91,4.57-1.92,6.84-3.01,4.5-2.17,8.93-4.66,13.07-7.37,3.6-2.35,6.98-4.87,10.01-7.48,8.24-7.1,13.83-14.85,13.87-21.75.03-4.71-2.61-9.93-6.95-15.11m-38.88,16.8-5.2,39.89"/>
      <g>
        <g>
          <rect class="cls-3" x="154.51" y="142.4" width="9.46" height="38.1"/>
          <circle class="cls-3" cx="159.24" cy="190.66" r="4.66"/>
        </g>
        <g>
          <rect class="cls-1" x="154.51" y="142.4" width="9.46" height="38.1"/>
          <circle class="cls-1" cx="159.24" cy="190.66" r="4.66"/>
        </g>
      </g>
    </g>
    <path class="cls-2" d="m234.66,251.55c-.11-3.27-1.55-6.05-3.93-7.63l.93-1.4c2.84,1.89,4.54,5.15,4.68,8.97l-1.68.06Zm-.64-11.97l-.77,1.5c2.57,1.31,5.89,6.5,5.77,10l1.68.06c.14-4.23-3.62-9.99-6.69-11.56Zm2.72-2.67l-.77,1.49c3.42,1.76,7.1,8.92,6.63,11.77l1.66.28c.59-3.52-3.34-11.39-7.52-13.54Zm-9.93,7.48l2.73-4.33h0c-.88-.21-1.79-.33-2.73-.33-6.61,0-11.96,5.56-11.96,12.41s5.35,12.41,11.96,12.41c5.85,0,10.72-4.36,11.76-10.13h0s-4.61,0-4.61,0h0c-.94,3.17-3.78,5.47-7.14,5.47-4.13,0-7.47-3.47-7.47-7.76,0-4.27,3.33-7.74,7.45-7.76,0,0,.02,0,.03,0Zm4.49,8.22l-7.21-4.16v8.32l7.21-4.16Z"/>
    <path class="cls-2" d="m107.38,243.54h-7.32v20.37h-5.8v-20.37h-7.28v-4.58h20.39v4.58Zm3.02,20.37v-25.5h5.3v25.5h-5.3Zm31.93,0h-7.3l-7.48-10.84c-.14-.21-.37-.67-.68-1.37h-.09v12.21h-5.78v-24.95h5.78v11.79h.09c.14-.32.38-.79.72-1.39l7.08-10.4h6.89l-8.94,11.9,9.71,13.05Zm23.36-10.8c0,7.49-3.59,11.24-10.77,11.24s-10.45-3.66-10.45-10.98v-14.4h5.8v14.47c0,4.04,1.62,6.05,4.87,6.05s4.78-1.95,4.78-5.85v-14.68h5.78v14.14Zm23.6-9.57h-7.32v20.37h-5.8v-20.37h-7.28v-4.58h20.39v4.58Zm24.81-4.58l-8.84,24.95h-6.55l-8.73-24.95h6.23l5.35,17.36c.29.94.46,1.77.52,2.49h.11c.08-.78.27-1.63.55-2.56l5.31-17.29h6.05Zm-126.87,42.55l2.57-7.21h1.03l2.57,7.21h-1.02l-.72-2.09h-2.74l-.71,2.09h-.99Zm1.99-2.93h2.17c-.22-.65-.43-1.24-.61-1.77-.18-.53-.3-.89-.37-1.09-.07-.2-.1-.31-.11-.32-.04.15-.39,1.21-1.08,3.18Zm5.02,2.93v-7.21h.94v6.34h2.85v.87h-3.79Zm4.69,0v-7.21h.94v6.34h2.85v.87h-3.79Zm7.11,0v-7.21h3.76v.86h-2.82v2.24h2.63v.85h-2.63v2.42h3.01v.85h-3.94Zm5.03,0v-7.21h.78l3.89,5.36v-5.36h.93v7.21h-.71l-3.96-5.44v5.44h-.93Zm8.49,0v-6.32h-2v-.89h4.94v.89h-2v6.32h-.94Zm3.95,0v-7.21h3.76v.86h-2.82v2.24h2.63v.85h-2.63v2.42h3.01v.85h-3.94Zm5.14,0v-7.21c1.1-.03,1.77-.04,2.01-.04.7,0,1.21.07,1.53.21.31.14.56.37.75.69.18.32.28.7.28,1.13,0,.62-.22,1.11-.65,1.47-.22.19-.49.31-.83.38.19.05.36.16.52.32.15.17.31.4.48.71l1.27,2.33h-1.05l-1.01-1.86c-.24-.43-.46-.74-.66-.91-.22-.2-.51-.29-.87-.29h-.83v3.07h-.94Zm.94-3.89h1.17c.43,0,.74-.06.93-.18.37-.22.55-.58.55-1.07,0-.27-.06-.5-.18-.71-.12-.21-.28-.35-.47-.44-.16-.08-.48-.12-.97-.12l-1.04.04v2.48Zm6.67,3.89v-6.32h-2v-.89h4.94v.89h-2v6.32h-.94Zm3.24,0l2.57-7.21h1.03l2.57,7.21h-1.02l-.72-2.09h-2.74l-.71,2.09h-.99Zm1.99-2.93h2.17c-.22-.65-.43-1.24-.61-1.77-.18-.53-.3-.89-.37-1.09-.07-.2-.1-.31-.11-.32-.04.15-.39,1.21-1.08,3.18Zm5.01,2.93v-7.21h.94v7.21h-.94Zm2.33,0v-7.21h.78l3.89,5.36v-5.36h.93v7.21h-.71l-3.96-5.44v5.44h-.93Zm7.04,0v-7.21h.91l2.17,3.44,2.14-3.44h.9v7.21h-.94v-5.58l-2.02,3.24h-.16c-1.32-2.08-2.01-3.17-2.05-3.27v5.61h-.94Zm7.67,0v-7.21h3.76v.86h-2.82v2.24h2.63v.85h-2.63v2.42h3.01v.85h-3.94Zm5.03,0v-7.21h.78l3.89,5.36v-5.36h.93v7.21h-.71l-3.96-5.44v5.44h-.93Zm8.49,0v-6.32h-2v-.89h4.94v.89h-2v6.32h-.94Zm6.37,0v-7.21h.94v7.21h-.94Zm2.33,0v-7.21h.78l3.89,5.36v-5.36h.93v7.21h-.71l-3.96-5.44v5.44h-.93Zm12.29.14c-.66,0-1.24-.17-1.74-.53-.5-.35-.87-.81-1.11-1.37-.25-.56-.37-1.18-.37-1.85,0-1.11.32-2.01.96-2.7s1.43-1.03,2.35-1.03,1.69.34,2.31,1.01.93,1.57.93,2.69c0,1.05-.31,1.94-.91,2.68-.61.74-1.41,1.1-2.41,1.1Zm.05-.88c.68,0,1.23-.26,1.66-.79.43-.53.65-1.22.65-2.08s-.22-1.58-.65-2.09-.99-.76-1.65-.76-1.23.26-1.67.78c-.44.52-.65,1.21-.65,2.07s.21,1.55.64,2.08.98.79,1.67.79Zm4.29.74v-7.21h.78l3.89,5.36v-5.36h.93v7.21h-.71l-3.96-5.44v5.44h-.93Zm7.04,0v-7.21h3.75v.86h-2.82v2.24h2.63v.85h-2.63v2.42h3.01v.85h-3.94Zm7.59,0v-7.21c1.17-.03,1.89-.04,2.14-.04.71,0,1.26.14,1.65.43.47.35.71.9.71,1.67,0,.4-.09.77-.26,1.09s-.4.57-.7.74c-.38.22-.87.34-1.49.34h-1.14v2.98h-.93Zm.93-3.78h1.04c.52,0,.89-.09,1.12-.28.29-.22.44-.58.44-1.06,0-.86-.49-1.29-1.46-1.29l-1.13.03v2.6Zm4.55,3.78v-7.21h.94v6.34h2.85v.87h-3.79Zm3.97,0l2.57-7.21h1.03l2.57,7.21h-1.01l-.72-2.09h-2.74l-.71,2.09h-.99Zm1.99-2.93h2.17c-.22-.65-.43-1.24-.61-1.77-.18-.53-.3-.89-.37-1.09-.07-.2-.1-.31-.11-.32-.03.15-.39,1.21-1.08,3.18Zm7.9,3.07c-1.04,0-1.84-.36-2.42-1.08-.57-.72-.86-1.61-.86-2.67,0-1.13.32-2.03.97-2.71.65-.68,1.44-1.02,2.37-1.02.77,0,1.49.17,2.15.5v.93c-.69-.37-1.39-.55-2.09-.55s-1.27.25-1.74.76-.71,1.21-.71,2.11.22,1.55.67,2.07c.45.52,1.04.78,1.78.78s1.45-.21,2.19-.64v.91c-.68.4-1.46.61-2.32.61Zm3.41-.14v-7.21h3.75v.86h-2.82v2.24h2.63v.85h-2.63v2.42h3.01v.85h-3.94Z"/>
  </g>
</svg>