<?xml version="1.0" encoding="UTF-8"?>
<svg id="Layer_1" data-name="Layer 1" xmlns="http://www.w3.org/2000/svg" xmlns:xlink="http://www.w3.org/1999/xlink" viewBox="0 0 748 225">
  <defs>
    <style>
      .cls-1 {
        fill: url(#linear-gradient-2);
      }

      .cls-2 {
        fill: #fff;
      }

      .cls-3 {
        fill: #00aeef;
      }

      .cls-4 {
        fill: #00adee;
      }

      .cls-5 {
        fill: url(#linear-gradient);
      }
    </style>
    <linearGradient id="linear-gradient" x1="98" y1="57.14" x2="99.33" y2="181.57" gradientUnits="userSpaceOnUse">
      <stop offset="0" stop-color="#6dd2ff"/>
      <stop offset="1" stop-color="#00a7f3"/>
    </linearGradient>
    <linearGradient id="linear-gradient-2" x1="87.13" y1="70.9" x2="92.9" y2="150.5" gradientUnits="userSpaceOnUse">
      <stop offset="0" stop-color="#fff"/>
      <stop offset="1" stop-color="#fff"/>
    </linearGradient>
  </defs>
  <path class="cls-3" d="m244.11,85.1h-25.39v73.46h-19.01v-73.46h-25.33v-15.51h69.73v15.51Zm29.9-15.51v88.97h-18.95v-88.97h18.95Zm91.93,88.97h-24.01l-26.94-38.89c-.69-1-1.47-2.55-2.35-4.65h-.29v43.54h-18.96v-88.97h18.96v42.04h.29c.84-1.84,1.68-3.43,2.53-4.77l25.5-37.28h22.63l-31.82,42.45,34.46,46.52Zm79.58-38.25c0,26.54-12.33,39.8-36.99,39.8s-35.73-12.92-35.73-38.77v-51.75h19.01v51.87c0,14.82,5.84,22.23,17.52,22.23s17.23-7.14,17.23-21.42v-52.67h18.96v50.72Zm79.75-35.21h-25.39v73.46h-19.01v-73.46h-25.33v-15.51h69.73v15.51Zm87.68-15.51l-30.9,88.97h-21.42l-30.5-88.97h20.45l19.24,62.9c.96,3.1,1.55,6.03,1.78,8.79h.34c.31-2.83.96-5.84,1.95-9.02l19.24-62.67h19.82Z"/>
  <path class="cls-4" d="m681.3,112.24c-.41-11.66-5.52-21.58-14.01-27.22l3.32-5c10.13,6.73,16.21,18.4,16.69,32.01l-6,.21Zm-2.28-42.73l-2.73,5.34c9.16,4.68,21.02,23.19,20.6,35.7l6,.2c.5-15.11-12.93-35.65-23.87-41.24Zm9.71-9.53l-2.75,5.33c12.19,6.28,25.36,31.82,23.66,42.02l5.92.99c2.09-12.55-11.93-40.66-26.83-48.34Zm-35.46,26.7l9.76-15.44h0c-3.13-.77-6.4-1.17-9.76-1.17-23.57,0-42.68,19.83-42.68,44.29,0,24.46,19.11,44.29,42.68,44.29,20.89,0,38.27-15.57,41.96-36.14h0s-16.46,0-16.46,0v.02c-3.36,11.3-13.51,19.51-25.5,19.51-14.73,0-26.68-12.39-26.68-27.68,0-15.26,11.89-27.63,26.58-27.68.03,0,.06,0,.09,0Zm16.04,29.34l-25.73-14.85v29.71l25.73-14.85Z"/>
  <path class="cls-5" d="m151.24,95.57c-3.73-4.46-8.37-8.89-13.61-13.11-.06-.05-.11-.09-.17-.14-7.42-5.97-16.01-11.52-24.88-16.13-21.26-11.07-44.07-16.75-55.98-9.88-13.21,7.62-20.14,35.39-20.17,62.47-.03,26.38,6.5,52.11,20.17,57.93,3.18,1.35,7,2,11.28,2.03,3.59-.33,7.19-.79,10.76-1.36,3.33-.67,6.7-1.47,10.07-2.39m0,0c3.86-1.05,7.71-2.26,11.5-3.61,3.16-1.26,6.33-2.66,9.47-4.17,6.23-3,12.37-6.46,18.11-10.22,4.99-3.26,9.67-6.75,13.86-10.36,11.42-9.84,19.16-20.58,19.21-30.13.04-6.53-3.62-13.76-9.63-20.94m-53.86,23.28-7.2,55.27"/>
  <path class="cls-2" d="m129.01,104.47l10.35,6.62h0l1.12.72c3.09,1.97,3.09,6.48,0,8.46l-51.77,33.1c-3.18,2.04-7.36-.25-7.36-4.03v-14.35l47.67-30.52Zm-10.67,1.24c2.94-1.88,2.94-6.18,0-8.06l-51.02-32.62c-3.34-2.14-7.72.26-7.72,4.23v13.99l47,29.98,11.74-7.52Zm-51.02,61.33l9.31-5.95v-61.39l-9.68-6.17c-3.19-2.03-7.36.26-7.36,4.03v65.25c0,3.97,4.38,6.37,7.72,4.23Z"/>
  <polygon class="cls-1" points="81.55 127.9 100.12 116.03 81.55 104.15 81.55 127.9"/>
</svg>