<?xml version="1.0" encoding="UTF-8"?>
<svg id="Layer_1" data-name="Layer 1" xmlns="http://www.w3.org/2000/svg" xmlns:xlink="http://www.w3.org/1999/xlink" viewBox="0 0 108 108">
  <defs>
    <style>
      .cls-1 {
        fill: url(#linear-gradient-2);
      }

      .cls-2 {
        fill: url(#linear-gradient-3);
      }

      .cls-3 {
        fill: url(#linear-gradient);
      }
    </style>
    <linearGradient id="linear-gradient" x1="54" y1="28.72" x2="54" y2="78.56" gradientUnits="userSpaceOnUse">
      <stop offset="0" stop-color="#00d8ef"/>
      <stop offset="1" stop-color="#0098ef"/>
    </linearGradient>
    <linearGradient id="linear-gradient-2" x1="55.02" y1="41.67" x2="55.02" y2="74.99" gradientUnits="userSpaceOnUse">
      <stop offset="0" stop-color="#fff"/>
      <stop offset=".1" stop-color="#fff" stop-opacity=".98"/>
      <stop offset=".22" stop-color="#fff" stop-opacity=".92"/>
      <stop offset=".36" stop-color="#fff" stop-opacity=".81"/>
      <stop offset=".51" stop-color="#fff" stop-opacity=".67"/>
      <stop offset=".67" stop-color="#fff" stop-opacity=".49"/>
      <stop offset=".83" stop-color="#fff" stop-opacity=".26"/>
      <stop offset="1" stop-color="#fff" stop-opacity="0"/>
    </linearGradient>
    <linearGradient id="linear-gradient-3" x1="49.39" y1="35.92" x2="51.7" y2="67.81" gradientUnits="userSpaceOnUse">
      <stop offset="0" stop-color="#fff"/>
      <stop offset="1" stop-color="#fff"/>
    </linearGradient>
  </defs>
  <path class="cls-3" d="m75.06,45.81c-1.5-1.78-3.35-3.56-5.45-5.25-.02-.02-.04-.04-.07-.06-2.97-2.39-6.41-4.61-9.96-6.46-8.51-4.43-17.65-6.71-22.42-3.96-5.29,3.05-8.07,14.18-8.08,25.02-.01,10.57,2.6,20.87,8.08,23.2,1.27.54,2.8.8,4.52.82,1.44-.13,2.88-.31,4.31-.54,1.33-.27,2.68-.59,4.03-.96m0,0c1.54-.42,3.09-.91,4.6-1.44,1.26-.51,2.53-1.07,3.79-1.67,2.5-1.2,4.95-2.59,7.25-4.09,2-1.31,3.87-2.7,5.55-4.15,4.57-3.94,7.67-8.24,7.7-12.07.02-2.61-1.45-5.51-3.86-8.38m-21.57,9.32-2.89,22.14"/>
  <path class="cls-1" d="m66.16,49.37l4.14,2.65h0l.45.29c1.24.79,1.24,2.6,0,3.39l-20.74,13.26c-1.28.82-2.95-.1-2.95-1.61v-5.75l19.09-12.22Zm-4.27.5c1.18-.75,1.18-2.48,0-3.23l-20.43-13.07c-1.34-.86-3.09.11-3.09,1.69v5.6l18.83,12.01,4.7-3.01Zm-20.43,24.56l3.73-2.38v-24.59l-3.88-2.47c-1.28-.81-2.95.1-2.95,1.62v26.14c0,1.59,1.76,2.55,3.09,1.69Z"/>
  <polygon class="cls-2" points="47.15 58.76 54.59 54 47.15 49.24 47.15 58.76"/>
</svg>