<?xml version="1.0" encoding="UTF-8"?>
<svg id="Layer_1" data-name="Layer 1" xmlns="http://www.w3.org/2000/svg" xmlns:xlink="http://www.w3.org/1999/xlink" viewBox="0 0 275 82">
  <defs>
    <style>
      .cls-1 {
        fill: #04b5f6;
      }

      .cls-2 {
        fill: url(#linear-gradient-2);
      }

      .cls-3 {
        fill: #06aff1;
      }

      .cls-4 {
        fill: #00aeef;
      }

      .cls-5 {
        fill: url(#linear-gradient-3);
      }

      .cls-6 {
        fill: url(#linear-gradient);
      }

      .cls-7 {
        fill: none;
        stroke: #25b6f1;
        stroke-miterlimit: 10;
        stroke-width: 2px;
      }
    </style>
    <linearGradient id="linear-gradient" x1="60.16" y1="17.3" x2="42.21" y2="66.63" gradientUnits="userSpaceOnUse">
      <stop offset="0" stop-color="#00aeef"/>
      <stop offset="1" stop-color="#27aae1"/>
    </linearGradient>
    <linearGradient id="linear-gradient-2" x1="54" y1="29.53" x2="54" y2="64.62" gradientUnits="userSpaceOnUse">
      <stop offset="0" stop-color="#fff"/>
      <stop offset="1" stop-color="#fff" stop-opacity="0"/>
    </linearGradient>
    <linearGradient id="linear-gradient-3" x1="48.07" y1="21.96" x2="50.51" y2="55.54" gradientUnits="userSpaceOnUse">
      <stop offset="0" stop-color="#fff"/>
      <stop offset="1" stop-color="#fff"/>
    </linearGradient>
  </defs>
  <g>
    <path class="cls-6" d="m75.11,32.37c-1.57-1.88-3.53-3.75-5.74-5.53-.02-.02-.05-.04-.07-.06-3.13-2.52-6.76-4.86-10.49-6.81-8.97-4.67-18.59-7.07-23.61-4.17-5.57,3.22-8.49,14.93-8.51,26.35-.01,11.13,2.74,21.98,8.51,24.44,1.34.57,2.95.84,4.76.86,1.51-.14,3.03-.33,4.54-.57,1.41-.28,2.83-.62,4.25-1.01m0,0c1.63-.44,3.25-.95,4.85-1.52,1.33-.53,2.67-1.12,4-1.76,2.63-1.27,5.22-2.72,7.64-4.31,2.1-1.38,4.08-2.85,5.85-4.37,4.82-4.15,8.08-8.68,8.11-12.71.02-2.75-1.53-5.8-4.06-8.83m-22.72,9.82-3.04,23.31"/>
    <path class="cls-2" d="m65.74,36.12l4.36,2.79h0l.47.3c1.3.83,1.3,2.73,0,3.57l-21.84,13.96c-1.34.86-3.11-.11-3.11-1.7v-6.05l20.11-12.87Zm-4.5.52c1.24-.79,1.24-2.61,0-3.4l-21.52-13.76c-1.41-.9-3.26.11-3.26,1.78v5.9l19.83,12.65,4.95-3.17Zm-21.52,25.87l3.93-2.51v-25.9l-4.08-2.6c-1.34-.86-3.1.11-3.1,1.7v27.53c0,1.67,1.85,2.69,3.26,1.78Z"/>
    <polygon class="cls-5" points="45.72 46.01 53.55 41 45.72 35.99 45.72 46.01"/>
  </g>
  <g>
    <g>
      <path class="cls-4" d="m96.37,48.32v-20.15h-6.37v-4.35h17.61v4.35h-6.41v20.15h-4.83Z"/>
      <path class="cls-4" d="m110.88,48.32v-24.5h4.86v24.5h-4.86Z"/>
      <path class="cls-4" d="m120.79,48.32v-24.5h4.86v10.5l7.96-10.5h5.41l-8.99,11.42,9.8,13.08h-5.97l-8.22-11.27v11.27h-4.86Z"/>
      <path class="cls-4" d="m152.29,48.8c-2.63,0-4.83-.69-6.6-2.08-1.77-1.39-2.81-3.27-3.13-5.65-.15-1.03-.22-2.26-.22-3.68v-13.56h4.86v13.48c0,1.42.05,2.42.15,2.98.47,2.78,2.17,4.16,5.12,4.16,1.35,0,2.46-.35,3.33-1.05.87-.7,1.43-1.72,1.68-3.08.12-.74.18-1.74.18-3.02v-13.48h4.86v13.3c0,1.67-.09,2.95-.26,3.83-.47,2.48-1.6,4.41-3.39,5.78-1.79,1.38-3.99,2.06-6.6,2.06Z"/>
      <path class="cls-4" d="m171.93,48.32v-20.15h-6.37v-4.35h17.61v4.35h-6.41v20.15h-4.83Z"/>
      <path class="cls-4" d="m192.6,48.32l-8.55-24.5h5.23c3.6,10.9,5.64,17.17,6.14,18.82l6.02-18.82h5.16l-8.58,24.5h-5.42Z"/>
    </g>
    <g>
      <g>
        <path class="cls-3" d="m219.24,27.74l2.89-4.57h0c-.96-.21-1.95-.31-2.97-.29-7.16.12-12.86,6.02-12.75,13.18s6.02,12.86,13.18,12.75c6.34-.1,11.55-4.75,12.57-10.79h0s-5,.08-5,.08h0c-.97,3.33-4.01,5.78-7.65,5.84-4.47.07-8.16-3.49-8.23-7.97-.07-4.46,3.48-8.14,7.94-8.23,0,0,.02,0,.03,0Z"/>
        <path class="cls-1" d="m216.41,31.5c-2,1.04-1.9,7.97-.03,8.87,1.99,1,7.69-2.28,7.69-4.13-.14-2.42-5.98-5.7-7.66-4.74Z"/>
      </g>
      <g>
        <path class="cls-7" d="m223.96,27.86c3.03.81,4.77,4.15,3.89,7.47"/>
        <path class="cls-7" d="m228.81,20.62c6.18,1.64,9.82,8.15,8.12,14.53"/>
        <path class="cls-7" d="m226.23,23.99c4.69,1.46,7.3,6.46,5.83,11.16"/>
      </g>
    </g>
  </g>
  <g>
    <path class="cls-4" d="m86.85,62.91l2.61-7.35h1.62l2.6,7.35h-1.56l-.61-1.76h-2.57l-.56,1.76h-1.54Zm2.5-3h1.9c-.19-.54-.37-1.04-.54-1.51s-.28-.79-.35-.98c-.07-.19-.1-.29-.11-.31-.07.26-.37,1.19-.9,2.8Z"/>
    <path class="cls-4" d="m94.5,62.91v-7.35h1.46v6.05h2.6v1.3h-4.06Z"/>
    <path class="cls-4" d="m99.47,62.91v-7.35h1.46v6.05h2.6v1.3h-4.06Z"/>
    <path class="cls-4" d="m106.95,62.91v-7.35h4.25v1.27h-2.81v1.73h2.58v1.24h-2.58v1.86h3.01v1.26h-4.45Z"/>
    <path class="cls-4" d="m112.57,62.91v-7.35h1.24l3.37,4.7v-4.7h1.44v7.35h-1.18l-3.43-4.76v4.76h-1.44Z"/>
    <path class="cls-4" d="m121.45,62.91v-6.05h-1.91v-1.3h5.29v1.3h-1.92v6.05h-1.45Z"/>
    <path class="cls-4" d="m125.82,62.91v-7.35h4.25v1.27h-2.81v1.73h2.58v1.24h-2.58v1.86h3.01v1.26h-4.45Z"/>
    <path class="cls-4" d="m131.5,62.91v-7.37c1.36-.03,2.16-.04,2.4-.04.82,0,1.43.1,1.82.3.31.15.55.39.73.72.18.32.27.7.27,1.13,0,.67-.26,1.2-.77,1.58-.18.15-.42.26-.72.32.21.06.4.18.59.37.16.18.32.44.49.76l1.16,2.23h-1.59l-.93-1.82c-.21-.4-.4-.66-.54-.79-.2-.17-.47-.25-.81-.25h-.62v2.86h-1.46Zm1.46-4.06h1.03c.36,0,.63-.06.81-.19.29-.19.43-.48.43-.87,0-.44-.17-.74-.5-.92-.17-.09-.45-.13-.84-.13l-.93.03v2.08Z"/>
    <path class="cls-4" d="m139.63,62.91v-6.05h-1.91v-1.3h5.29v1.3h-1.92v6.05h-1.45Z"/>
    <path class="cls-4" d="m143.29,62.91l2.61-7.35h1.62l2.6,7.35h-1.56l-.61-1.76h-2.57l-.56,1.76h-1.54Zm2.5-3h1.9c-.19-.54-.37-1.04-.54-1.51-.17-.47-.28-.79-.35-.98-.07-.19-.1-.29-.11-.31-.07.26-.37,1.19-.9,2.8Z"/>
    <path class="cls-4" d="m150.93,62.91v-7.35h1.46v7.35h-1.46Z"/>
    <path class="cls-4" d="m153.82,62.91v-7.35h1.24l3.37,4.7v-4.7h1.44v7.35h-1.18l-3.43-4.76v4.76h-1.44Z"/>
    <path class="cls-4" d="m161.31,62.91v-7.35h1.37l1.99,3.2,1.97-3.2h1.4v7.35h-1.46v-4.91c-.04.09-.61,1.03-1.72,2.83h-.33c-1.16-1.86-1.74-2.81-1.76-2.85v4.93h-1.46Z"/>
    <path class="cls-4" d="m169.56,62.91v-7.35h4.25v1.27h-2.81v1.73h2.58v1.24h-2.58v1.86h3.01v1.26h-4.45Z"/>
    <path class="cls-4" d="m175.18,62.91v-7.35h1.24l3.37,4.7v-4.7h1.44v7.35h-1.18l-3.43-4.76v4.76h-1.44Z"/>
    <path class="cls-4" d="m184.06,62.91v-6.05h-1.91v-1.3h5.29v1.3h-1.92v6.05h-1.45Z"/>
    <path class="cls-4" d="m190.92,62.91v-7.35h1.46v7.35h-1.46Z"/>
    <path class="cls-4" d="m193.8,62.91v-7.35h1.24l3.37,4.7v-4.7h1.44v7.35h-1.18l-3.43-4.76v4.76h-1.44Z"/>
    <path class="cls-4" d="m206.83,63.05c-1.03,0-1.85-.37-2.48-1.1-.63-.73-.94-1.64-.94-2.73s.34-2.04,1.02-2.75c.68-.7,1.52-1.06,2.52-1.06s1.8.34,2.46,1.03c.66.69.98,1.59.98,2.71s-.33,2.04-1,2.78c-.66.74-1.51,1.11-2.55,1.11Zm.07-1.3c.59,0,1.07-.23,1.44-.68.37-.45.55-1.07.55-1.84s-.18-1.41-.55-1.85c-.36-.44-.84-.66-1.42-.66s-1.08.22-1.45.67c-.37.45-.56,1.06-.56,1.84s.18,1.4.54,1.85c.36.45.84.67,1.45.67Z"/>
    <path class="cls-4" d="m211.42,62.91v-7.35h1.24l3.37,4.7v-4.7h1.44v7.35h-1.18l-3.43-4.76v4.76h-1.44Z"/>
    <path class="cls-4" d="m218.92,62.91v-7.35h4.25v1.27h-2.81v1.73h2.58v1.24h-2.58v1.86h3.01v1.26h-4.45Z"/>
    <path class="cls-4" d="m227.12,62.91v-7.35c1.47-.03,2.33-.04,2.6-.04.76,0,1.35.15,1.77.44.54.38.81.99.81,1.81,0,.42-.08.8-.24,1.13-.16.33-.39.6-.67.79-.43.29-.99.43-1.68.43h-1.12v2.79h-1.46Zm1.46-3.94h.9c.44,0,.76-.08.95-.25.24-.19.35-.49.35-.91,0-.73-.4-1.09-1.22-1.09l-.98.03v2.22Z"/>
    <path class="cls-4" d="m233.3,62.91v-7.35h1.46v6.05h2.6v1.3h-4.06Z"/>
    <path class="cls-4" d="m237.56,62.91l2.61-7.35h1.62l2.6,7.35h-1.56l-.61-1.76h-2.57l-.56,1.76h-1.54Zm2.5-3h1.9c-.19-.54-.37-1.04-.54-1.51-.17-.47-.28-.79-.35-.98-.07-.19-.1-.29-.11-.31-.07.26-.37,1.19-.9,2.8Z"/>
    <path class="cls-4" d="m248.29,63.05c-1.07,0-1.92-.36-2.54-1.07-.62-.71-.93-1.63-.93-2.76s.35-2.08,1.04-2.77c.69-.69,1.54-1.03,2.53-1.03.8,0,1.54.15,2.22.46v1.36c-.65-.35-1.35-.53-2.09-.53-.63,0-1.15.21-1.57.64-.42.43-.63,1.06-.63,1.89s.2,1.41.6,1.85c.4.43.93.65,1.59.65s1.41-.19,2.18-.58v1.3c-.68.38-1.48.58-2.4.58Z"/>
    <path class="cls-4" d="m251.76,62.91v-7.35h4.25v1.27h-2.81v1.73h2.58v1.24h-2.58v1.86h3.01v1.26h-4.45Z"/>
  </g>
</svg>