<?xml version="1.0" encoding="UTF-8"?>
<svg id="Layer_1" data-name="Layer 1" xmlns="http://www.w3.org/2000/svg" xmlns:xlink="http://www.w3.org/1999/xlink" viewBox="0 0 108 108">
  <defs>
    <style>
      .cls-1 {
        fill: url(#linear-gradient-2);
      }

      .cls-2 {
        fill: url(#linear-gradient-3);
      }

      .cls-3 {
        fill: url(#linear-gradient);
      }
    </style>
    <linearGradient id="linear-gradient" x1="54" y1="30.23" x2="54" y2="77.09" gradientUnits="userSpaceOnUse">
      <stop offset="0" stop-color="#00d8ef"/>
      <stop offset="1" stop-color="#0098ef"/>
    </linearGradient>
    <linearGradient id="linear-gradient-2" x1="54.96" y1="42.41" x2="54.96" y2="73.74" gradientUnits="userSpaceOnUse">
      <stop offset="0" stop-color="#fff"/>
      <stop offset=".1" stop-color="#fff" stop-opacity=".98"/>
      <stop offset=".22" stop-color="#fff" stop-opacity=".92"/>
      <stop offset=".36" stop-color="#fff" stop-opacity=".81"/>
      <stop offset=".51" stop-color="#fff" stop-opacity=".67"/>
      <stop offset=".67" stop-color="#fff" stop-opacity=".49"/>
      <stop offset=".83" stop-color="#fff" stop-opacity=".26"/>
      <stop offset="1" stop-color="#fff" stop-opacity="0"/>
    </linearGradient>
    <linearGradient id="linear-gradient-3" x1="49.66" y1="37" x2="51.83" y2="66.98" gradientUnits="userSpaceOnUse">
      <stop offset="0" stop-color="#fff"/>
      <stop offset="1" stop-color="#fff"/>
    </linearGradient>
  </defs>
  <path class="cls-3" d="m73.8,46.3c-1.41-1.68-3.15-3.35-5.12-4.94-.02-.02-.04-.03-.06-.05-2.8-2.25-6.03-4.34-9.37-6.08-8.01-4.17-16.6-6.31-21.08-3.72-4.97,2.87-7.58,13.33-7.59,23.53,0,9.94,2.45,19.62,7.59,21.81,1.2.51,2.64.75,4.25.77,1.35-.12,2.71-.3,4.05-.51,1.25-.25,2.52-.55,3.79-.9m0,0c1.45-.4,2.9-.85,4.33-1.36,1.19-.48,2.38-1,3.57-1.57,2.35-1.13,4.66-2.43,6.82-3.85,1.88-1.23,3.64-2.54,5.22-3.9,4.3-3.7,7.22-7.75,7.24-11.35.01-2.46-1.36-5.18-3.63-7.88m-20.28,8.77-2.71,20.81"/>
  <path class="cls-1" d="m65.43,49.65l3.9,2.49h0l.42.27c1.16.74,1.16,2.44,0,3.19l-19.5,12.47c-1.2.77-2.77-.09-2.77-1.52v-5.4l17.95-11.49Zm-4.02.47c1.11-.71,1.11-2.33,0-3.04l-19.21-12.28c-1.26-.8-2.91.1-2.91,1.59v5.27l17.7,11.29,4.42-2.83Zm-19.21,23.1l3.51-2.24v-23.12l-3.64-2.32c-1.2-.77-2.77.1-2.77,1.52v24.57c0,1.49,1.65,2.4,2.91,1.59Z"/>
  <polygon class="cls-2" points="47.56 58.47 54.55 54 47.56 49.53 47.56 58.47"/>
</svg>